<svg version="1.1" id="Layer_1" xmlns="http://www.w3.org/2000/svg" xmlns:xlink="http://www.w3.org/1999/xlink" x="0px" y="0px"
	 width="100%" viewBox="0 0 353 353" enable-background="new 0 0 353 353" xml:space="preserve">
<path fill="#3FB2FF" opacity="1.000000" stroke="none" 
	d="
M354.000000,151.000000 
	C354.000000,168.354233 354.000000,185.708450 353.665863,203.202209 
	C352.899292,204.009140 352.165192,204.639862 352.078918,205.349365 
	C350.303619,219.950333 346.078644,233.922134 340.170563,247.269791 
	C327.515808,275.859711 309.173859,300.010498 283.832825,318.814514 
	C260.436646,336.175354 234.691055,347.535828 205.913559,352.077301 
	C205.192520,352.191071 204.634216,353.335999 204.000000,354.000000 
	C136.372345,354.000000 68.744705,354.000000 1.058527,354.000000 
	C1.058527,236.440231 1.058527,118.880409 1.058527,1.000000 
	C68.353889,1.000000 135.708282,1.000000 203.202316,1.333975 
	C204.175293,2.109105 204.970718,2.831157 205.847641,2.949533 
	C220.399734,4.913939 234.365921,9.080541 247.704636,15.030420 
	C276.123688,27.707047 300.153900,45.980755 318.821014,71.205505 
	C336.124908,94.588150 347.616333,120.287033 352.077515,149.085999 
	C352.189056,149.805984 353.335968,150.365585 354.000000,151.000000 
M321.055664,231.659058 
	C327.006836,218.642807 329.781952,204.717072 330.800476,190.676117 
	C332.243561,170.782120 330.719818,150.964874 324.373352,131.812378 
	C315.709381,105.666138 301.622253,83.108299 281.108185,64.439003 
	C267.177643,51.761177 251.751465,41.796001 234.357437,34.767078 
	C217.598480,27.994795 200.268692,23.982864 182.096268,23.991589 
	C131.277237,24.015982 80.458199,24.000217 29.639164,24.000303 
	C27.866259,24.000305 26.093353,24.000303 24.279758,24.000303 
	C24.279758,126.594742 24.279758,228.636444 24.279758,330.999756 
	C26.359642,330.999756 28.162455,330.999756 29.965267,330.999756 
	C78.951477,330.999786 127.938423,330.846558 176.923523,331.079865 
	C194.953659,331.165741 212.240265,328.241516 229.195892,322.109406 
	C252.643295,313.629456 272.597382,300.251678 289.612640,282.070374 
	C303.271179,267.475800 313.804413,251.060577 321.055664,231.659058 
z"/>
<path fill="#000000" opacity="1.000000" stroke="none" 
	d="
M354.000000,150.531342 
	C353.335968,150.365585 352.189056,149.805984 352.077515,149.085999 
	C347.616333,120.287033 336.124908,94.588150 318.821014,71.205505 
	C300.153900,45.980755 276.123688,27.707047 247.704636,15.030420 
	C234.365921,9.080541 220.399734,4.913939 205.847641,2.949533 
	C204.970718,2.831157 204.175293,2.109105 203.670975,1.333975 
	C253.927002,1.000000 303.854004,1.000000 354.000000,1.000000 
	C354.000000,50.687347 354.000000,100.375015 354.000000,150.531342 
z"/>
<path fill="#000000" opacity="1.000000" stroke="none" 
	d="
M204.468658,354.000000 
	C204.634216,353.335999 205.192520,352.191071 205.913559,352.077301 
	C234.691055,347.535828 260.436646,336.175354 283.832825,318.814514 
	C309.173859,300.010498 327.515808,275.859711 340.170563,247.269791 
	C346.078644,233.922134 350.303619,219.950333 352.078918,205.349365 
	C352.165192,204.639862 352.899292,204.009140 353.665863,203.670868 
	C354.000000,253.927002 354.000000,303.854004 354.000000,354.000000 
	C304.312653,354.000000 254.624985,354.000000 204.468658,354.000000 
z"/>
<path fill="#000000" opacity="1.000000" stroke="none" 
	d="
M321.027710,232.057114 
	C313.804413,251.060577 303.271179,267.475800 289.612640,282.070374 
	C272.597382,300.251678 252.643295,313.629456 229.195892,322.109406 
	C212.240265,328.241516 194.953659,331.165741 176.923523,331.079865 
	C127.938423,330.846558 78.951477,330.999786 29.965267,330.999756 
	C28.162455,330.999756 26.359642,330.999756 24.279758,330.999756 
	C24.279758,228.636444 24.279758,126.594742 24.279758,24.000303 
	C26.093353,24.000303 27.866259,24.000305 29.639164,24.000303 
	C80.458199,24.000217 131.277237,24.015982 182.096268,23.991589 
	C200.268692,23.982864 217.598480,27.994795 234.357437,34.767078 
	C251.751465,41.796001 267.177643,51.761177 281.108185,64.439003 
	C301.622253,83.108299 315.709381,105.666138 324.373352,131.812378 
	C330.719818,150.964874 332.243561,170.782120 330.800476,190.676117 
	C329.781952,204.717072 327.006836,218.642807 321.027710,232.057114 
M291.102112,251.408707 
	C294.084015,246.606445 297.065948,241.804184 300.588226,236.753494 
	C303.543121,227.523483 306.890900,218.395874 309.331909,209.031906 
	C311.381012,201.171417 312.373169,193.035400 313.972687,184.091599 
	C314.567993,156.177551 308.716827,129.926987 293.742004,105.327293 
	C286.433655,96.321884 279.904388,86.511414 271.629974,78.504326 
	C259.926941,67.179405 246.313400,58.271770 231.066040,51.905277 
	C215.719681,45.497459 199.778458,41.376541 183.333633,41.185520 
	C137.380661,40.651741 91.417458,40.997528 45.458298,41.011024 
	C44.030132,41.011444 42.602020,41.175625 40.999817,41.274166 
	C40.999817,43.493462 40.999817,45.311634 40.999817,47.129807 
	C40.999817,90.591187 40.996620,134.052567 41.010098,177.513947 
	C41.010715,179.504623 41.161411,181.495270 41.091312,184.350555 
	C41.091312,227.440903 41.091312,270.531250 41.091312,313.733887 
	C42.248055,313.830780 42.888508,313.931488 43.528942,313.931366 
	C90.514648,313.921539 137.500381,313.910553 184.486023,313.848175 
	C185.685516,313.846588 186.884247,313.274078 188.967545,312.985931 
	C203.121719,312.477264 216.365128,308.477295 229.485733,303.334534 
	C242.092194,298.393280 253.285889,291.138062 263.847687,283.097351 
	C270.907501,277.722717 276.605927,270.481659 282.555878,263.759155 
	C285.698456,260.208557 288.075317,255.980209 291.102112,251.408707 
z"/>
<path fill="#FED086" opacity="1.000000" stroke="none" 
	d="
M188.083344,312.967834 
	C186.884247,313.274078 185.685516,313.846588 184.486023,313.848175 
	C137.500381,313.910553 90.514648,313.921539 43.528942,313.931366 
	C42.888508,313.931488 42.248055,313.830780 41.091312,313.733887 
	C41.091312,270.531250 41.091312,227.440903 41.523033,183.784470 
	C42.581913,183.010544 43.232483,182.855179 43.832867,182.587341 
	C73.748703,169.241089 103.561790,155.657669 133.623505,142.648819 
	C144.760269,137.829514 156.479904,134.357178 167.865906,130.583862 
	C163.414215,134.702148 158.952881,138.422073 154.662079,142.329254 
	C144.871338,151.244644 136.011414,160.929428 131.133530,173.520370 
	C125.926361,186.961273 129.446274,199.226212 141.515366,207.127975 
	C147.265564,210.892715 153.738541,214.503098 160.353485,215.813004 
	C177.732651,219.254532 195.369385,221.395386 213.198059,224.278610 
	C216.605667,225.433990 219.718704,226.365158 222.960480,227.601120 
	C224.298462,228.762772 225.508209,229.618973 226.716919,230.476639 
	C233.124786,235.023346 236.082764,242.085205 233.328369,248.778351 
	C231.204834,253.938538 228.372955,259.009003 224.924286,263.385101 
	C213.585083,277.773773 198.841553,288.434082 184.224655,299.161407 
	C178.173248,303.602539 171.928406,307.780029 165.771545,312.077423 
	C165.909073,312.374237 166.046616,312.671021 166.184158,312.967834 
	C173.483887,312.967834 180.783615,312.967834 188.083344,312.967834 
z"/>
<path fill="#3FB2FF" opacity="1.000000" stroke="none" 
	d="
M167.933716,130.270554 
	C156.479904,134.357178 144.760269,137.829514 133.623505,142.648819 
	C103.561790,155.657669 73.748703,169.241089 43.832867,182.587341 
	C43.232483,182.855179 42.581913,183.010544 41.598480,183.352158 
	C41.161411,181.495270 41.010715,179.504623 41.010098,177.513947 
	C40.996620,134.052567 40.999817,90.591187 40.999817,47.129807 
	C40.999817,45.311634 40.999817,43.493462 40.999817,41.274166 
	C42.602020,41.175625 44.030132,41.011444 45.458298,41.011024 
	C91.417458,40.997528 137.380661,40.651741 183.333633,41.185520 
	C199.778458,41.376541 215.719681,45.497459 231.066040,51.905277 
	C246.313400,58.271770 259.926941,67.179405 271.629974,78.504326 
	C279.904388,86.511414 286.433655,96.321884 293.379730,105.668747 
	C271.713043,110.171341 250.395905,114.268745 229.107971,118.512497 
	C209.929443,122.335724 190.782883,126.319328 171.254044,130.238129 
	C169.901810,130.252884 168.917770,130.261719 167.933716,130.270554 
M108.099205,115.776688 
	C115.401016,113.563522 118.635269,109.432205 118.049728,103.066254 
	C117.564369,97.789612 113.333282,93.485588 108.094887,92.939812 
	C101.508690,92.253616 95.885162,96.698586 95.156479,103.166634 
	C94.399879,109.882500 99.344330,115.044601 108.099205,115.776688 
z"/>
<path fill="#CC8902" opacity="1.000000" stroke="none" 
	d="
M167.865906,130.583862 
	C168.917770,130.261719 169.901810,130.252884 171.553436,130.497543 
	C176.673584,131.978561 181.299652,132.778244 185.550888,134.502243 
	C215.759338,146.752579 245.824112,159.359039 276.079681,171.490402 
	C288.479187,176.462158 301.237946,180.537979 313.833282,185.021362 
	C312.373169,193.035400 311.381012,201.171417 309.331909,209.031906 
	C306.890900,218.395874 303.543121,227.523483 299.873962,236.895187 
	C283.825989,234.537201 268.512817,231.901703 253.152328,229.578857 
	C239.763748,227.554214 226.321854,225.882217 212.903503,224.054413 
	C195.369385,221.395386 177.732651,219.254532 160.353485,215.813004 
	C153.738541,214.503098 147.265564,210.892715 141.515366,207.127975 
	C129.446274,199.226212 125.926361,186.961273 131.133530,173.520370 
	C136.011414,160.929428 144.871338,151.244644 154.662079,142.329254 
	C158.952881,138.422073 163.414215,134.702148 167.865906,130.583862 
z"/>
<path fill="#5096C8" opacity="1.000000" stroke="none" 
	d="
M313.902985,184.556488 
	C301.237946,180.537979 288.479187,176.462158 276.079681,171.490402 
	C245.824112,159.359039 215.759338,146.752579 185.550888,134.502243 
	C181.299652,132.778244 176.673584,131.978561 171.921631,130.491608 
	C190.782883,126.319328 209.929443,122.335724 229.107971,118.512497 
	C250.395905,114.268745 271.713043,110.171341 293.420593,106.009964 
	C308.716827,129.926987 314.567993,156.177551 313.902985,184.556488 
z"/>
<path fill="#FAC14D" opacity="1.000000" stroke="none" 
	d="
M188.525452,312.976868 
	C180.783615,312.967834 173.483887,312.967834 166.184158,312.967834 
	C166.046616,312.671021 165.909073,312.374237 165.771545,312.077423 
	C171.928406,307.780029 178.173248,303.602539 184.224655,299.161407 
	C198.841553,288.434082 213.585083,277.773773 224.924286,263.385101 
	C228.372955,259.009003 231.204834,253.938538 233.328369,248.778351 
	C236.082764,242.085205 233.124786,235.023346 226.716919,230.476639 
	C225.508209,229.618973 224.298462,228.762772 223.346222,227.561951 
	C238.415558,232.650681 253.234711,238.064819 268.037354,243.523712 
	C275.639404,246.327194 283.211975,249.210571 290.797913,252.057831 
	C288.075317,255.980209 285.698456,260.208557 282.555878,263.759155 
	C276.605927,270.481659 270.907501,277.722717 263.847687,283.097351 
	C253.285889,291.138062 242.092194,298.393280 229.485733,303.334534 
	C216.365128,308.477295 203.121719,312.477264 188.525452,312.976868 
z"/>
<path fill="#F9B013" opacity="1.000000" stroke="none" 
	d="
M290.950012,251.733276 
	C283.211975,249.210571 275.639404,246.327194 268.037354,243.523712 
	C253.234711,238.064819 238.415558,232.650681 223.217499,227.257172 
	C219.718704,226.365158 216.605667,225.433990 213.198059,224.278610 
	C226.321854,225.882217 239.763748,227.554214 253.152328,229.578857 
	C268.512817,231.901703 283.825989,234.537201 299.603821,237.019409 
	C297.065948,241.804184 294.084015,246.606445 290.950012,251.733276 
z"/>
<path fill="#F7BC3D" opacity="1.000000" stroke="none" 
	d="
M107.703629,115.814896 
	C99.344330,115.044601 94.399879,109.882500 95.156479,103.166634 
	C95.885162,96.698586 101.508690,92.253616 108.094887,92.939812 
	C113.333282,93.485588 117.564369,97.789612 118.049728,103.066254 
	C118.635269,109.432205 115.401016,113.563522 107.703629,115.814896 
z"/>
</svg>